toy_with_forces_states
version=1
nRows=17
nColumns=17
inDegrees=yes

# SIMM Motion File Header:
name toy_with_forces_states
datacolumns 17
datarows 17
otherdata 1
range 1.78800462 1.80496655
endheader
time	/jointset/ground_block/xRotation/value	/jointset/ground_block/xRotation/speed	/jointset/ground_block/yRotation/value	/jointset/ground_block/yRotation/speed	/jointset/ground_block/zRotation/value	/jointset/ground_block/zRotation/speed	/jointset/ground_block/xTranslation/value	/jointset/ground_block/xTranslation/speed	/jointset/ground_block/yTranslation/value	/jointset/ground_block/yTranslation/speed	/jointset/ground_block/zTranslation/value	/jointset/ground_block/zTranslation/speed	/jointset/pin1/pin1_rot/value	/jointset/pin1/pin1_rot/speed	/jointset/pin2/pin2_rot/value	/jointset/pin2/pin2_rot/speed
      1.78800462	      0.00000000	     -0.00000000	     -0.00000000	     -0.00000000	     44.61635063	     22.99518170	      0.00000000	      0.00000000	      0.72514510	     -1.35505232	      0.00000000	     -0.00000000	      2.79009491	     55.46885457	    -94.81289106	   -156.92807254
      1.78869784	      0.00000000	     -0.00000000	     -0.00000000	     -0.00000000	     44.63230655	     23.03951568	      0.00000000	      0.00000000	      0.72420393	     -1.36040884	      0.00000000	     -0.00000000	      2.83172313	     64.84688172	    -94.92805937	   -175.77279481
      1.78946536	      0.00000000	     -0.00000000	     -0.00000000	     -0.00000000	     44.65000942	     23.09077413	      0.00000000	      0.00000000	      0.72315741	     -1.36656459	      0.00000000	     -0.00000000	      2.88574144	     75.89556802	    -95.07150170	   -197.97268431
      1.79023289	      0.00000000	     -0.00000000	     -0.00000000	     -0.00000000	     44.66775254	     23.14441738	      0.00000000	      0.00000000	      0.72210637	     -1.37204582	      0.00000000	     -0.00000000	      2.94801194	     86.13235297	    -95.23152896	   -218.55354069
      1.79100041	      0.00000000	     -0.00000000	     -0.00000000	     -0.00000000	     44.68553773	     23.20036159	      0.00000000	      0.00000000	      0.72105158	     -1.37629832	      0.00000000	     -0.00000000	      3.01748943	     94.56185744	    -95.40605432	   -235.52443806
      1.79176793	      0.00000000	     -0.00000000	     -0.00000000	     -0.00000000	     44.70336668	     23.25840460	      0.00000000	      0.00000000	      0.71999404	     -1.37918126	      0.00000000	     -0.00000000	      3.09260092	    100.78577768	    -95.59193519	   -248.08836457
      1.79304832	      0.00000000	     -0.00000000	     -0.00000000	     -0.00000000	     44.73321052	     23.35920200	      0.00000000	      0.00000000	      0.71822661	     -1.38098034	      0.00000000	     -0.00000000	      3.22576309	    106.22649664	    -95.91794722	   -259.17139728
      1.79432871	      0.00000000	     -0.00000000	     -0.00000000	     -0.00000000	     44.76318605	     23.46388432	      0.00000000	      0.00000000	      0.71645911	     -1.37938571	      0.00000000	     -0.00000000	      3.36230455	    106.25169617	    -96.25098119	   -259.43116099
      1.79560910	      0.00000000	     -0.00000000	     -0.00000000	     -0.00000000	     44.79329747	     23.57130068	      0.00000000	      0.00000000	      0.71469548	     -1.37505452	      0.00000000	     -0.00000000	      3.49606581	    102.09839001	    -96.57872655	   -251.33938139
      1.79688949	      0.00000000	     -0.00000000	     -0.00000000	     -0.00000000	     44.82354764	     23.68047839	      0.00000000	      0.00000000	      0.71293877	     -1.36870570	      0.00000000	     -0.00000000	      3.62252241	     95.05329092	    -96.89214011	   -237.46753864
      1.79816988	      0.00000000	     -0.00000000	     -0.00000000	     -0.00000000	     44.85393832	     23.79065856	      0.00000000	      0.00000000	      0.71119109	     -1.36105144	      0.00000000	     -0.00000000	      3.73876512	     86.33397494	    -97.18540687	   -220.24926702
      1.79945026	      0.00000000	     -0.00000000	     -0.00000000	     -0.00000000	     44.88447042	     23.90130111	      0.00000000	      0.00000000	      0.70945371	     -1.35271768	      0.00000000	     -0.00000000	      3.84332893	     76.96043764	    -97.45559870	   -201.72347750
      1.80062435	      0.00000000	     -0.00000000	     -0.00000000	     -0.00000000	     44.91259216	     24.00287116	      0.00000000	      0.00000000	      0.70787007	     -1.34496369	      0.00000000	     -0.00000000	      3.92868890	     68.54638997	    -97.68256213	   -185.09852225
      1.80179843	      0.00000000	     -0.00000000	     -0.00000000	     -0.00000000	     44.94083317	     24.10446939	      0.00000000	      0.00000000	      0.70629529	     -1.33777509	      0.00000000	     -0.00000000	      4.00473729	     61.30702498	    -97.89114094	   -170.82298874
      1.80297251	      0.00000000	     -0.00000000	     -0.00000000	     -0.00000000	     44.96919358	     24.20632696	      0.00000000	      0.00000000	      0.70472813	     -1.33216804	      0.00000000	     -0.00000000	      4.07368742	     56.72645788	    -98.08576200	   -161.86556967
      1.80396953	      0.00000000	     -0.00000000	     -0.00000000	     -0.00000000	     44.99337114	     24.29349406	      0.00000000	      0.00000000	      0.70340148	     -1.32941964	      0.00000000	     -0.00000000	      4.12962936	     56.03979071	    -98.24600099	   -160.66656953
      1.80496655	      0.00000000	     -0.00000000	     -0.00000000	     -0.00000000	     45.01763616	     24.38189339	      0.00000000	      0.00000000	      0.70207651	     -1.32876718	      0.00000000	     -0.00000000	      4.18654455	     58.65737986	    -98.40836142	   -166.07854649
